<svg>
  <symbol style="enable-background:new 0 0 15.207 10.854" viewBox="0 0 15.207 10.854" xml:space="preserve" xmlns="http://www.w3.org/2000/svg" id="arrow_back">
     <path d="M11.707 0h-4v1h4c1.378 0 2.5 1.122 2.5 2.5S13.085 6 11.707 6H1.914L5.06 2.854l-.706-.708L0 6.5l4.354 4.354.707-.707L1.914 7h9.793c1.93 0 3.5-1.57 3.5-3.5s-1.57-3.5-3.5-3.5z" fill="currentColor"/>
  </symbol>
  <symbol width="25" height="25" viewBox="0 0 16 16" xmlns="http://www.w3.org/2000/svg" id="close-cross">
    <path fill-rule="evenodd" clip-rule="evenodd" d="M4.11 2.697L2.698 4.11 6.586 8l-3.89 3.89 1.415 1.413L8 9.414l3.89 3.89 1.413-1.415L9.414 8l3.89-3.89-1.415-1.413L8 6.586l-3.89-3.89z" fill="currentColor"></path>
  </symbol>
  <symbol xmlns="http://www.w3.org/2000/svg" width="24" height="24" id="sort-down">
     <path d="M6.904 19.803a.5.5 0 0 1-.808 0l-2.95-2.95a.5.5 0 0 1 .708-.707L6 18.293V4.5a.5.5 0 0 1 1 0v13.793l2.146-2.147a.5.5 0 0 1 .708.708l-2.95 2.95zM12.5 6a.5.5 0 1 1 0-1h8a.5.5 0 1 1 0 1h-8zm0 4a.5.5 0 1 1 0-1h6a.5.5 0 1 1 0 1h-6zm0 4a.5.5 0 1 1 0-1h4a.5.5 0 1 1 0 1h-4zm0 4a.5.5 0 1 1 0-1h2a.5.5 0 1 1 0 1h-2z" fill="currentColor"/>
  </symbol>
  <symbol xmlns="http://www.w3.org/2000/svg" width="24" height="24" id="sort-up">
    <path d="M8 5.707v13.801a.5.5 0 1 1-1 0v-13.8L4.854 7.853a.5.5 0 1 1-.708-.708l3-3a.5.5 0 0 1 .708 0l3 3a.5.5 0 0 1-.708.708L8 5.707zM12.5 6a.5.5 0 1 1 0-1h8a.5.5 0 1 1 0 1h-8zm0 4a.5.5 0 1 1 0-1h6a.5.5 0 1 1 0 1h-6zm0 4a.5.5 0 1 1 0-1h4a.5.5 0 1 1 0 1h-4zm0 4a.5.5 0 1 1 0-1h2a.5.5 0 1 1 0 1h-2z" fill="currentColor"/>
  </symbol>
</svg>